<svg id="Layer_1" data-name="Layer 1" xmlns="http://www.w3.org/2000/svg" viewBox="0 0 2000 386"><defs><style>.cls-1{fill:#ff8000;}.cls-2{fill:#fff;}</style></defs><title>fiverr2</title><path d="M428.58,312.29h-7.14l-11.91-43h-5.18v-6H424v6h-6.82q7.06,25.11,8.91,32.76,2.7-9.86,12.22-38.73h5.83q10.67,31.94,12.62,39.27,1.35-5.7,8.82-33.31H458v-6h18.63v6h-5.25l-11.67,43h-6.32q-10.12-31.15-12.53-39.5Q438.34,282.14,428.58,312.29Z"/><path d="M516.6,312.29H497.07v-6h6.32v-37h-6.32v-6H516.6v6h-6.32v37h6.32Z"/><path d="M559.2,312.29H539.53v-6h6.32v-37h-6.32v-6h20.09q7.74,0,11.93,1.49a12,12,0,0,1,6,4.51,13.27,13.27,0,0,1,2.2,7.78q0,10.32-10.08,13.67L578,306.33h6v6H573.66l-10.77-20.17q-1.42.07-4.26.07h-5.89v14.13h6.46Zm-6.46-25.85h6.11q6.67,0,9.73-1.42,4.19-2,4.19-7.6a7,7,0,0,0-4.83-7q-2.77-1.14-8.81-1.14h-6.39Z"/><path d="M669.85,312.29h-6.92l-16.22-43h-5.47v-6h19.63v6h-6.46q9,23.17,12.76,34.11l12.77-34.11h-7.38v-6h19v6h-5.4Z"/><path d="M752.38,312.29H715.1v-6h6.32v-37H715.1v-6h35.65l.28,11.86h-6l-.43-5.89H728.3v14.42h18.11v6.11H728.3v16.47h17.82l.5-6.53h6Z"/><path d="M798.54,312.29H778.87v-6h6.32v-37h-6.32v-6H799q7.74,0,11.93,1.49a12,12,0,0,1,6,4.51,13.27,13.27,0,0,1,2.2,7.78q0,10.32-10.08,13.67l8.37,15.52h6v6H813l-10.77-20.17q-1.42.07-4.26.07h-5.89v14.13h6.46Zm-6.46-25.85h6.11q6.67,0,9.73-1.42,4.19-2,4.19-7.6a7,7,0,0,0-4.83-7q-2.77-1.14-8.81-1.14h-6.39Z"/><path d="M864.29,312.29H844.84v-6h6.32v-37h-6.32v-6H859l16.33,37.75s7.77-22.84,15.94-37.75h13.38v6h-6.11v37h6.11v6H885v-6h6.67q0-27.34.21-32.45C891.28,275.06,877,309.5,877,309.5h-4.56s-14.1-34.23-14.9-35.74q.28,8.53.28,32.56h6.46Z"/><path d="M947.09,312.29H927.56v-6h6.32v-37h-6.32v-6h19.53v6h-6.32v37h6.32Z"/><path d="M1004.42,312.29H984.89v-6h6.32V269.55H980.85l-.43,6.25h-6l.28-12.43h40.69l.28,12.43h-6l-.43-6.25H998.1v36.78h6.32Z"/><path d="M1071,312.29h-19.53v-6h6.32V269.55h-10.37l-.43,6.25h-6l.28-12.43H1082l.28,12.43h-6l-.43-6.25h-11.08v36.78H1071Z"/><path d="M1144,312.29h-37.28v-6h6.32v-37h-6.32v-6h35.65l.28,11.86h-6l-.43-5.89H1120v14.42h18.11v6.11H1120v16.47h17.82l.5-6.53h6Z"/><path d="M1203.26,312.29h-36.71v-6h6.32v-37h-6.32v-6h20v6h-6.75v37H1197l.5-7.17h6Z"/><path d="M1245.08,312.29h-19.67v-6h6.32v-37h-6.32v-6h12.94q23.72,33,26.12,36.66-.28-10.5-.28-30.69h-6.53v-6h19.67v6h-6.25v43h-5.68l-27-38.77q.21,15.13.21,32.81h6.46Z"/><path d="M1358.15,312.29h-20.73v-6h6.32v-37h-6.32v-6h35.65l.28,11.86h-6l-.43-5.89h-16.26v16h17.47v6.11h-17.47v14.91h7.53Z"/><path d="M1409.34,312.29H1390v-6h5.18l16.52-43h7.06l17,43h5.25v6h-19.74v-6h6.89l-3.05-8.17h-20l-3.11,8.17h7.24Zm3.55-57.45a3.68,3.68,0,0,1-1.1,2.77,4.18,4.18,0,0,1-5.57,0,3.62,3.62,0,0,1-1.14-2.77,3.83,3.83,0,0,1,1.17-3,4,4,0,0,1,5.47,0A3.83,3.83,0,0,1,1412.89,254.85Zm-5.47,37.49h15.48l-7.6-20.73Zm18.25-37.49a3.68,3.68,0,0,1-1.1,2.77,4.18,4.18,0,0,1-5.57,0,3.62,3.62,0,0,1-1.14-2.77,3.83,3.83,0,0,1,1.17-3,4,4,0,0,1,5.47,0A3.83,3.83,0,0,1,1425.67,254.85Z"/><path d="M1481.63,312.29H1462v-6h6.32v-37H1462v-6h19.67v6h-6.46v14.42h25.28V269.33H1494v-6h19.67v6h-6.32v37h6.32v6H1494v-6h6.46V289.85h-25.28v16.47h6.46Z"/><path d="M1556.11,312.29h-19.53v-6h6.32v-37h-6.32v-6h19.53v6h-6.32v37h6.32Z"/><path d="M1617.5,308.67q-7.24,4.62-17.54,4.62-11.15,0-18.32-6.78t-7.17-18.71a27.17,27.17,0,0,1,2.17-11,21.86,21.86,0,0,1,5.86-8.06,26.22,26.22,0,0,1,8.38-4.76,30.24,30.24,0,0,1,10-1.63,36.65,36.65,0,0,1,8.7,1,17.85,17.85,0,0,1,6.71,2.95l.28,11.86h-6l-.64-8.31a27.52,27.52,0,0,0-9-1.42,20.09,20.09,0,0,0-13.81,4.86q-5.5,4.86-5.5,14.09,0,9.52,5.4,14.63t13.78,5.11a24.59,24.59,0,0,0,10.08-1.85V293.19h-8.09V287h18.82v6.18h-4Z"/><path d="M1660.65,312.29H1641v-6h6.32v-37H1641v-6h19.67v6h-6.46v18.18l16.75-18.18H1667v-6h18.65v6h-6.82l-12.78,13.48,15,23.52h7.38v6h-11.94L1661.2,288l-7,7.39v11h6.46Z"/><path d="M1749.28,312.29H1712v-6h6.32v-37H1712v-6h35.65l.28,11.86h-6l-.43-5.89h-16.26v14.42h18.11v6.11h-18.11v16.47H1743l.5-6.53h6Z"/><path d="M1795.31,312.29h-19.53v-6h6.32v-37h-6.32v-6h19.53v6H1789v37h6.32Z"/><path d="M1847.64,312.29h-19.53v-6h6.32V269.55h-10.37l-.43,6.25h-6l.28-12.43h40.69l.28,12.43h-6l-.43-6.25h-11.08v36.78h6.32Z"/><path d="M1921.65,312.29h-37.28v-6h6.32v-37h-6.32v-6H1920l.28,11.86h-6l-.43-5.89h-16.26v14.42h18.11v6.11h-18.11v16.47h17.82l.5-6.53h6Z"/><path d="M1965.81,312.29h-19.67v-6h6.32v-37h-6.32v-6h12.94q23.72,33,26.12,36.66-.28-10.5-.28-30.69h-6.53v-6H1998v6h-6.25v43h-5.68l-27-38.77q.21,15.13.21,32.81h6.46Z"/><circle class="cls-1" cx="164.2" cy="180.55" r="160.88"/><circle class="cls-2" cx="210.25" cy="131.17" r="54.37"/><path d="M41.61,113.42s-14.42,43.27-11.09,57.69l67.68,4.44c-36.55,33-69.24,67.31-84.8,107.49a37.1,37.1,0,0,0,5.29,36.06c12.18,15.73,25.2,28.66,39.43,37.57a37.54,37.54,0,0,0,28.57,4.69,175.73,175.73,0,0,0,53.06-21.79c-21.45-2.1-48.21-12-72.62-30.88,27.74-38.83,42.27-52.66,75.45-81-.16,26.15,1.5,52.61,7.77,79.88l59.91,2.22c-6.62-42.09-.89-107.28,11.09-184.18C174.58,116.92,117.38,113.7,41.61,113.42Z"/><path class="cls-1" d="M465.93,69.38q22.18-.75,46.32,8.41v37.16h-19l-4.91-19a48.33,48.33,0,0,0-19.24-3.55,30,30,0,0,0-14.72,3.37q-6.09,3.37-6.08,9.72,0,5.8,6.08,9.54T475,124.35q6.28,2.43,9,3.55t8,3.74a50.75,50.75,0,0,1,7.75,4.49q2.45,1.87,6,5.14a21.47,21.47,0,0,1,5.1,6.73,55.07,55.07,0,0,1,2.85,8.13A39,39,0,0,1,515,166.43q0,19.63-14.92,30.76t-39.65,11.13c-15.7,0-31.54-4.83-48.54-10.82V160.62h21.26l4.71,19.64A54.19,54.19,0,0,0,457.68,184q9,0,15.21-3.46a11.19,11.19,0,0,0,6.18-10.38q0-5.79-5.2-9.72t-21.69-10.66q-19.83-8-29.05-16.83t-9.23-24.87q0-18.89,14.92-28.61T465.93,69.38Z"/><path class="cls-1" d="M649.95,71.43v40.45H627.6l-5.11-16.14H603.76v89.57l12.11,5.61v15.15H558V190.93l12.11-5.61V95.74H551.36l-5.11,16.14H523.91V71.43Z"/><path class="cls-1" d="M839.66,71.43V86.58l-13.43,5.61v89.57h32.92l4.54-18.33H882v42.64H780.64V190.93l12.11-5.61V92.19l-12.11-5.61V71.43Z"/><path class="cls-1" d="M954.86,71.43V86.58l-13.43,5.61v89.57h32.92l4.54-18.33h18.35v42.64H895.84V190.93l12.11-5.61V92.19l-12.11-5.61V71.43Z"/><path class="cls-1" d="M1116.27,71.43v39.83h-18.69l-4.24-15.52h-35.84v30.67h40.37v24.31h-40.37v31h37.19l4.62-15.9H1118v40.21H1011V190.93l12.33-5.61V92.19L1011,86.77V71.43Z"/><path class="cls-1" d="M765.27,71.43v39.83H746.57l-4.24-15.52H706.49v30.67h40.37v24.31H706.49v31h37.19l4.62-15.9H767v40.21H660V190.93l12.33-5.61V92.19L660,86.77V71.43Z"/><path class="cls-1" d="M1278.4,71.43V86.58L1262.89,92V206.07h-30.18l-45.07-62.46q-7.94-12.34-10.92-17.77h-.4V185.5l15.51,5.42v15.15H1134V190.93l15.31-5.42V94.19L1134,86.77V71.43h43.51l43.68,60.21q2.78,4.12,8.24,13t5.86,9.63h.4V92l-15.51-5.42V71.43Z"/><path d="M1942.93,69.38q22.18-.75,46.32,8.41v37.16h-19l-4.91-19a48.33,48.33,0,0,0-19.24-3.55,30,30,0,0,0-14.72,3.37q-6.09,3.37-6.08,9.72,0,5.8,6.08,9.54t20.61,9.35q6.28,2.43,9,3.55t8,3.74a50.75,50.75,0,0,1,7.75,4.49q2.45,1.87,6,5.14a21.47,21.47,0,0,1,5.1,6.73,55.07,55.07,0,0,1,2.85,8.13,39,39,0,0,1,1.28,10.29q0,19.63-14.92,30.76t-39.65,11.13c-15.7,0-31.54-4.83-48.54-10.82V160.62h21.26l4.71,19.64a54.19,54.19,0,0,0,19.83,3.74q9,0,15.21-3.46a11.19,11.19,0,0,0,6.18-10.38q0-5.79-5.2-9.72t-21.69-10.66q-19.83-8-29.05-16.83t-9.23-24.87q0-18.89,14.92-28.61T1942.93,69.38Z"/><path d="M1287,71.43h65.29q24.75,0,38.2,11.31t13.45,32.44q0,21.69-13.45,33.38t-40,11.69H1334v25.06l13.32,5.61v15.15H1287V190.93l12.47-5.61V92.19L1287,86.77Zm62.37,24.31H1334v40.21h14.62q10.33,0,15.59-5.24t5.26-14.77Q1369.44,95.74,1349.37,95.74Z"/><path d="M1415.42,71.43h64.32q25.16,0,38.31,11.69t13.15,32.07q0,26.18-21.76,38.15l16.08,32.16,15.7,5.42v15.15h-39.56L1483,159.14c-1.51.13-8.85.19-12,.19h-10v26l12.11,5.61v15.15h-57.7V190.93l12.11-5.24V92.19l-12.11-5.42Zm65.43,24.31H1461V135.2h19.08q20.43,0,20.43-20Q1500.52,95.74,1480.85,95.74Z"/><path d="M1615.38,69.19q30.33,0,47.08,18.14t16.75,50.86q0,34.22-16.65,52.17t-47.91,18q-31.26,0-47.45-18T1551,138.19q0-32.72,16.84-50.86T1615.38,69.19Zm25.19,36.16q-8.43-11.65-23.85-11.66t-23.95,11.66q-8.53,11.66-8.53,32.81,0,22.53,8.33,34.18T1616.72,184q15.42,0,23.85-11.75t8.43-34.09Q1649,117,1640.57,105.35Z"/><path d="M1803.5,71.43l-2.39,40.77h-18l-4.35-16.46h-39.92v33.1h44.29V153h-44.29v32.35l13.78,5.61v15.15h-60.37V190.93l15.11-5.61V92.19l-15.11-5.42V71.43Z"/><path d="M1871.19,71.43V86.58l-12.11,5.61v93.13l12.11,5.61v15.15h-57.7V190.93l12.11-5.61V92.19l-12.11-5.61V71.43Z"/></svg>